<svg width="8369" height="3233" viewBox="0 0 8369 3233" fill="none" xmlns="http://www.w3.org/2000/svg">
<path d="M5994.3 2364.86L6820.05 2162.56C6907.94 2162.81 6966.92 2307.75 6879.61 2353.85C6835.95 2376.9 6714.8 2362.04 6643.68 2375.36C6393.87 2421.71 5888.19 2524.14 5844.82 2774.59C5789.89 3091.87 6063.11 3090.85 6338.36 3027.34C6467.89 2997.63 6589.61 2870.87 6696.01 2954.1C6910.54 3121.83 6455.75 3195.84 6339.23 3212.48C6144.94 3239.88 5673.66 3277.02 5631.45 3043.98C5617.86 2969.72 5642.72 2644.5 5657.47 2562.3C5675.68 2460.38 5821.11 2351.03 5832.97 2161.53C5839.04 2065.25 5714.72 2004.04 5793.07 1932.85C5891.66 1843.23 6671.44 1784.33 6847.51 1676.77C6915.46 1666.02 6982.83 1727.99 6946.11 1788.68C6864.28 1923.89 6374.5 1907.5 6255.09 1984.84C6240.35 1994.31 6089.14 2133.11 6076.12 2149.24C6053.57 2177.41 5973.48 2346.42 5994.59 2365.12L5994.3 2364.86Z" fill="#BE1923"/>
<path d="M8359.9 2714.4C8388.24 2820.67 8351.52 2880.85 8233.55 2907.48C8003.41 2959.21 7728.16 3026.56 7487.9 3053.96C7294.47 3075.98 7118.68 3111.06 7112.03 2884.43C7107.7 2744.87 7160.03 2565.87 7166.97 2424C7175.06 2260.11 7171.3 2081.11 7147.6 1918.5C7163.21 1785.08 7403.76 1811.72 7419.37 1941.55C7424.58 1985.34 7383.52 2051.15 7377.16 2102.62C7357.79 2260.88 7329.74 2452.17 7322.81 2607.61C7320.2 2664.2 7305.17 2778.93 7347.67 2815.55C7513.92 2910.81 7688.55 2857.55 7863.47 2809.91C8023.65 2766.13 8192.5 2642.69 8359.9 2714.4Z" fill="#BE1923"/>
<path d="M2586.89 2195.89C2591.23 2154.15 2691.26 2066.57 2714.68 2008.7C2788.12 1826.88 2694.73 1708.83 2474.13 1724.71C2354.14 1733.16 2033.79 1806.39 1973.07 1905.24C1900.79 2023.04 1784.56 2420.73 1737.15 2572.58C1699.56 2692.17 1608.2 2943.13 1599.23 3051.45C1593.74 3117.78 1631.33 3160.03 1697.25 3186.41C1755.36 3212.53 1777.91 3138.26 1820.13 3129.05C1857.71 3120.85 1903.39 3150.3 1944.16 3148.25C1984.93 3146.2 2479.04 2839.93 2532.24 2792.3C2617.25 2716.25 2751.69 2539.29 2734.92 2428.41C2721.62 2341.09 2583.42 2228.41 2586.89 2195.89ZM2438.57 1879.63C2447.53 1879.38 2455.63 1879.89 2463.43 1881.94C2586.89 1913.44 2392.31 2135.97 2340.84 2173.36C2280.99 2216.89 2174.88 2227.9 2102.02 2250.18C2058.94 2141.86 2305.86 1885.27 2438.57 1879.63ZM2339.97 2726.23C2283.59 2771.81 1884.6 2997.68 1858.58 2861.7L1960.93 2505.75C2159.27 2536.22 2286.49 2343.91 2480.78 2398.45C2498.42 2409.21 2506.22 2425.85 2507.38 2446.08C2512.58 2533.15 2387.97 2687.05 2339.97 2726.49V2726.23Z" fill="#BE1923"/>
<path d="M3613.58 1832.99C3590.74 1750.28 3538.41 1695.22 3434.61 1723.13C3337.75 1749 3285.71 1985.36 3246.68 2064.75C3101.25 2360.52 2840.74 2735.42 2756.32 3038.87C2738.1 3104.68 2738.1 3152.06 2808.65 3193.29C3069.73 3177.41 2981.26 2894.95 3104.14 2745.66L3484.05 2642.72C3658.68 2646.81 3484.63 3375.1 3802.96 3063.46L3613.29 1832.99H3613.58ZM3234.25 2526.46C3231.07 2523.64 3229.91 2517.24 3230.78 2508.79C3235.11 2465.51 3285.42 2361.03 3323.3 2292.66C3327.06 2285.74 3330.81 2279.34 3334.28 2273.19C3344.69 2255.01 3353.37 2241.18 3359.15 2233.76C3381.7 2204.05 3388.35 2170.76 3442.13 2180.75C3525.11 2408.4 3544.48 2509.04 3234.25 2526.46Z" fill="#BE1923"/>
<path d="M6776.06 25.0755C6817.12 20.21 6867.43 12.0157 6884.49 58.11C6959.08 261.437 6349.31 264.766 6236.26 309.58C6127.26 352.601 5965.35 576.415 5923.72 678.078L6008.14 707.784C6168.9 685.249 6641.33 498.823 6770.28 513.932C6835.05 521.614 6890.85 621.741 6837.07 680.127C6786.18 735.44 6685.57 702.15 6616.18 714.954C6456.87 744.147 5894.52 890.368 5824.84 1005.6C5802.86 1041.97 5769.33 1166.17 5766.72 1209.44C5751.98 1451.69 6108.47 1417.89 6288.6 1370.26C6406.85 1339.02 6586.11 1181.27 6665.91 1335.95C6764.21 1526.98 6175.84 1585.88 6039.95 1589.47C5828.31 1594.84 5561.73 1550.29 5559.13 1324.17C5558.26 1255.28 5598.74 932.621 5617.53 868.089C5647.89 764.377 5771.64 659.385 5781.18 484.482C5784.94 415.597 5673.05 371.039 5727.69 297.288C5773.08 233.268 6371.58 136.214 6502.26 106.509C6586.98 87.303 6702.05 33.7822 6776.64 25.0755H6776.06Z" fill="#BE1923"/>
<path d="M4881.16 1104.43C4938.98 949.502 5046.25 794.573 5097.13 638.109C5154.38 461.67 5116.22 124.926 5435.99 209.688C5651.97 266.794 5355.61 544.384 5301.84 635.036C5193.41 818.133 5089.62 1069.86 4999.41 1266.27C4955.46 1361.79 4994.78 1471.9 4817.84 1450.91C4702.19 1437.08 4693.22 1261.92 4651.88 1180.74C4570.92 1021.46 4463.08 873.19 4386.46 712.116C4317.36 696.495 4325.74 752.321 4312.73 795.598C4285.85 884.202 4270.23 1000.72 4255.78 1093.93C4248.26 1142.59 4277.75 1184.07 4263 1235.8C4223.68 1373.83 4007.71 1438.36 4027.94 1237.85C4047.6 1041.18 4136.66 788.684 4174.24 581.259C4189.28 499.058 4197.08 208.92 4247.97 179.727C4478.4 47.8456 4489.39 468.84 4538.25 589.198C4605.33 755.137 4755.68 965.891 4881.45 1103.66V1104.43H4881.16Z" fill="#BE1923"/>
<path d="M1488.79 120.104C1534.76 156.467 1628.15 312.42 1531.87 340.845C1348.56 363.123 1307.51 201.537 1119.86 181.563C735.326 140.846 526.576 375.928 363.509 642.762C226.463 866.832 75.8282 1151.08 384.904 1316.51C498.531 1377.2 828.135 1428.41 963.446 1428.16C1051.63 1428.16 1075.34 1373.61 1125.65 1362.35C1302.88 1322.91 1370.83 1567.21 1172.2 1590C996.407 1610.23 346.161 1557.99 207.381 1473.74C-142.751 1261.45 20.0266 854.028 190.033 581.559C365.822 300.128 647.431 2.30742 1043.53 0.00269981C1128.25 -0.509459 1427.78 71.9609 1488.5 119.848L1488.79 120.104Z" fill="#BE1923"/>
<path d="M3813.43 1047.31C3743.46 994.561 3645.73 1024.52 3560.44 994.561C3526.61 982.782 3326.54 838.097 3321.62 812.745C3417.03 653.207 3938.62 450.392 3671.46 250.65C3568.25 173.57 3437.56 149.755 3305.43 157.949C3236.62 162.303 2956.16 235.541 2916.84 274.722C2837.91 353.338 2904.12 428.37 2901.23 512.62C2898.34 593.541 2830.11 691.619 2825.77 747.957C2819.12 835.536 2868.27 1018.63 2876.66 1116.2C2885.04 1213.77 2871.45 1313.89 2875.79 1411.72C3234.3 1578.68 2999.82 996.866 3059.09 943.089H3059.38C3122.41 885.727 3602.94 1301.6 3769.48 1262.16C3871.25 1238.09 3898.72 1111.59 3813.43 1047.31ZM3085.12 666.267C3029.02 567.677 3200.77 395.335 3341.57 351.034C3342.44 350.777 3343.31 350.521 3344.17 350.265C3349.67 348.728 3355.16 346.936 3360.36 345.912C3416.74 332.852 3465.9 342.583 3489.89 389.189C3508.4 424.528 3440.16 487.78 3354.58 545.142C3243.56 619.661 3102.75 684.705 3084.83 666.267H3085.12Z" fill="#BE1923"/>
<path d="M7798.73 999.727C7766.64 989.996 7545.46 837.117 7543.72 816.631C7649.83 646.85 8189.06 450.949 7874.2 241.22C7633.93 81.1702 7380.37 185.395 7133.45 273.998C7103.67 367.467 7130.56 465.033 7117.84 560.039C7086.91 790.767 7081.7 777.451 7094.42 1024.06C7101.07 1152.86 7090.66 1283.21 7093.56 1412.02C7460.46 1593.83 7224.82 991.021 7277.15 943.134C7352.03 874.505 7939.25 1416.37 8071.38 1219.96C8203.51 1023.54 7889.81 1027.64 7798.73 999.727ZM7302.88 666.312C7240.72 546.723 7501.8 329.055 7643.47 336.482C7669.78 337.762 7692.05 346.981 7707.66 365.675C7747.27 429.694 7626.99 513.945 7575.53 550.564C7497.75 605.877 7403.5 654.532 7303.17 666.312H7302.88Z" fill="#BE1923"/>
<path d="M2088.76 233.766C1744.99 278.068 1415.09 684.978 1392.54 978.189C1346.57 1577.16 2261.08 1435.55 2480.52 1018.91C2525.92 932.607 2614.39 671.662 2614.39 582.546C2614.39 390.23 2293.75 207.134 2088.76 233.766ZM2247.49 1020.19C2121.72 1175.11 1756.26 1284.72 1637.14 1130.3C1609.67 1094.71 1594.93 1045.03 1599.56 978.445C1606.49 879.086 1733.71 608.154 1836.35 563.852C1881.16 544.647 2150.34 466.286 2193.71 463.725C2242.28 460.652 2310.23 492.662 2356.78 533.123C2384.82 557.451 2405.06 584.851 2408.82 609.947C2421.54 693.685 2306.18 947.715 2247.78 1020.19H2247.49Z" fill="#BE1923"/>
<path d="M5294.01 2886.51C5303.27 2796.37 5386.82 2674.22 5387.98 2611.74C5390 2507 5295.75 2114.18 5109.55 2191.77C5036.4 2299.32 4682.51 2427.36 4650.13 2525.7C4635.67 2570 4667.76 2607.64 4662.27 2628.38C4647.24 2684.72 4221.64 2763.85 4173.36 2650.92C4137.8 2511.1 4828.23 2006.37 4987.25 1945.93C5137.02 1889.08 5373.81 1918.02 5341.14 1721.61C5287.94 1702.91 5233.59 1691.9 5175.18 1694.97C4900.8 1709.83 4128.25 2306.49 4011.16 2533.89C3954.2 2644.77 3917.19 2846.56 4086.04 2890.61C4311.56 2949.25 4814.35 2740.8 5068.21 2736.96C5223.76 2883.95 4827.07 3120.31 5121.69 3217.62C5392.61 3158.72 5277.53 3051.68 5294.3 2886.51H5294.01ZM5170.56 2471.41C5094.23 2530.31 4983.49 2535.43 4983.49 2535.43C4983.49 2535.43 4817.24 2543.37 4941.86 2447.85C4941.86 2447.85 5047.1 2361.04 5127.77 2378.71C5127.77 2378.71 5246.6 2412.25 5170.27 2471.15L5170.56 2471.41Z" fill="#BE1923"/>
</svg>
