<svg width="3652" height="3123" viewBox="0 0 3652 3123" fill="none" xmlns="http://www.w3.org/2000/svg">
<path d="M2236.32 456.858C2032.61 194.633 1573.66 190.72 1211.24 448.249C848.82 705.778 720.38 1126.9 924.087 1389.91C1127.79 1652.92 1586.75 1656.05 1949.17 1398.52C2311.59 1140.99 2440.03 719.866 2236.32 456.858ZM1651.38 717.519C1576.93 819.278 1440.31 859.199 1440.31 859.199C1440.31 859.199 1235.78 919.471 1357.68 753.526C1357.68 753.526 1459.13 605.582 1565.48 605.582C1565.48 605.582 1725.83 615.76 1650.56 717.519H1651.38Z" fill="#BE1923"/>
<path d="M3416.84 467.112C2922.84 -147.665 1809.85 -156.838 930.967 446.928C52.0818 1050.69 -259.393 2038.01 234.608 2654.62C728.61 3271.23 1841.6 3278.57 2720.49 2674.81C3599.37 2071.04 3910.85 1083.72 3416.84 467.112ZM1998.33 1078.22C1817.79 1316.79 1486.47 1410.39 1486.47 1410.39C1486.47 1410.39 990.487 1551.69 1286.09 1162.64C1286.09 1162.64 1532.1 815.791 1790.02 815.791C1790.02 815.791 2178.86 839.652 1996.34 1078.22H1998.33Z" fill="#EFD6A6"/>
</svg>
